<svg xmlns="http://www.w3.org/2000/svg" width="1.5rem" height="1.5rem" viewBox="0 0 25 24" fill="none" color="white"><mask id="mask0_486_318" maskUnits="userSpaceOnUse" x="0" y="0" width="25" height="24"><rect x="0.5" width="24" height="24" fill="#D9D9D9"></rect></mask><g mask="url(#mask0_486_318)"><path d="M16.6495 13H5.49951C5.21618 13 4.97868 12.9042 4.78701 12.7125C4.59535 12.5208 4.49951 12.2833 4.49951 12C4.49951 11.7167 4.59535 11.4792 4.78701 11.2875C4.97868 11.0958 5.21618 11 5.49951 11H16.6495L13.7995 8.15001C13.5995 7.95001 13.5037 7.71668 13.512 7.45001C13.5203 7.18335 13.6162 6.95001 13.7995 6.75001C13.9995 6.55001 14.237 6.44585 14.512 6.43751C14.787 6.42918 15.0245 6.52501 15.2245 6.72501L19.7995 11.3C19.8995 11.4 19.9703 11.5083 20.012 11.625C20.0537 11.7417 20.0745 11.8667 20.0745 12C20.0745 12.1333 20.0537 12.2583 20.012 12.375C19.9703 12.4917 19.8995 12.6 19.7995 12.7L15.2245 17.275C15.0245 17.475 14.787 17.5708 14.512 17.5625C14.237 17.5542 13.9995 17.45 13.7995 17.25C13.6162 17.05 13.5203 16.8167 13.512 16.55C13.5037 16.2833 13.5995 16.05 13.7995 15.85L16.6495 13Z" fill="white"></path></g></svg>