<svg xmlns="http://www.w3.org/2000/svg" viewBox="0 0 24 24" height="24" width="24"><g xmlns="http://www.w3.org/2000/svg" transform="matrix(-1 0 0 -1 24 24)"><mask id="mask0_486_340" maskUnits="userSpaceOnUse" x="0" y="0" width="24" height="24"><rect width="24" height="24" transform="matrix(-1 0 0 1 24 0)" fill="#D9D9D9"></rect></mask><g mask="url(#mask0_486_340)"><path d="M7.85049 13H19.0005C19.2838 13 19.5213 12.9042 19.713 12.7125C19.9047 12.5208 20.0005 12.2833 20.0005 12C20.0005 11.7167 19.9047 11.4792 19.713 11.2875C19.5213 11.0958 19.2838 11 19.0005 11H7.85049L10.7005 8.15001C10.9005 7.95001 10.9963 7.71668 10.988 7.45001C10.9797 7.18335 10.8838 6.95001 10.7005 6.75001C10.5005 6.55001 10.263 6.44585 9.98799 6.43751C9.71299 6.42918 9.47549 6.52501 9.27549 6.72501L4.70049 11.3C4.60049 11.4 4.52966 11.5083 4.48799 11.625C4.44632 11.7417 4.42549 11.8667 4.42549 12C4.42549 12.1333 4.44632 12.2583 4.48799 12.375C4.52966 12.4917 4.60049 12.6 4.70049 12.7L9.27549 17.275C9.47549 17.475 9.71299 17.5708 9.98799 17.5625C10.263 17.5542 10.5005 17.45 10.7005 17.25C10.8838 17.05 10.9797 16.8167 10.988 16.55C10.9963 16.2833 10.9005 16.05 10.7005 15.85L7.85049 13Z" fill="#BAB8B8" stroke="#BAB8B8" stroke-width="0.5"></path></g></g></svg>