<svg xmlns="http://www.w3.org/2000/svg" width="24" height="24" viewBox="0 0 18 19" fill="none" alt="arrow"><mask id="mask0_586_447" maskUnits="userSpaceOnUse" x="0" y="0" width="18" height="19"><rect y="0.895508" width="18" height="18" fill="#D9D9D9"></rect></mask><g mask="url(#mask0_586_447)"><path d="M12.1115 10.6454H3.74902C3.53652 10.6454 3.3584 10.5735 3.21465 10.4298C3.0709 10.286 2.99902 10.1079 2.99902 9.89539C2.99902 9.68289 3.0709 9.50477 3.21465 9.36102C3.3584 9.21727 3.53652 9.14539 3.74902 9.14539H12.1115L9.97402 7.00789C9.82402 6.85789 9.75215 6.68289 9.7584 6.48289C9.76465 6.28289 9.83652 6.10789 9.97402 5.95789C10.124 5.80789 10.3021 5.72977 10.5084 5.72352C10.7146 5.71727 10.8928 5.78914 11.0428 5.93914L14.474 9.37039C14.549 9.44539 14.6021 9.52664 14.6334 9.61414C14.6646 9.70164 14.6803 9.79539 14.6803 9.89539C14.6803 9.99539 14.6646 10.0891 14.6334 10.1766C14.6021 10.2641 14.549 10.3454 14.474 10.4204L11.0428 13.8516C10.8928 14.0016 10.7146 14.0735 10.5084 14.0673C10.3021 14.061 10.124 13.9829 9.97402 13.8329C9.83652 13.6829 9.76465 13.5079 9.7584 13.3079C9.75215 13.1079 9.82402 12.9329 9.97402 12.7829L12.1115 10.6454Z" fill="#1C1B1F" stroke="#212126" stroke-width="0.375"></path></g></svg>