<svg width="40" height="41" viewBox="0 0 40 41" fill="none" xmlns="http://www.w3.org/2000/svg" class="AppStoreLinks_socialIcon__bTFq4"><rect x="0.5" y="1.39551" width="39" height="39" rx="7.5" stroke="#DFE0E3"></rect><path d="M25.9914 29.8955H14.0086C12.3528 29.8955 11 28.5427 11 26.8869V14.9041C11 13.2483 12.3528 11.8955 14.0086 11.8955H25.9914C27.6472 11.8955 29 13.2483 29 14.9041V26.8869C29 28.5501 27.6546 29.8955 25.9914 29.8955Z" fill="#41404D"></path><path d="M20.0039 25.5195C18.7694 25.5195 17.6088 25.039 16.7366 24.1668C15.8643 23.2945 15.3838 22.1339 15.3838 20.8994C15.3838 19.6649 15.8643 18.5043 16.7366 17.6321C17.6088 16.7598 18.7694 16.2793 20.0039 16.2793C21.2384 16.2793 22.399 16.7598 23.2713 17.6321C24.1435 18.5043 24.624 19.6649 24.624 20.8994C24.624 22.1339 24.1435 23.2945 23.2713 24.1668C22.3916 25.039 21.2384 25.5195 20.0039 25.5195ZM20.0039 17.2625C18.0006 17.2625 16.367 18.8887 16.367 20.8994C16.367 22.9027 17.9932 24.5364 20.0039 24.5364C22.0072 24.5364 23.6409 22.9101 23.6409 20.8994C23.6335 18.8961 22.0072 17.2625 20.0039 17.2625Z" fill="white"></path><path d="M25.5248 16.1272C26.0147 16.1272 26.4119 15.73 26.4119 15.2401C26.4119 14.7502 26.0147 14.353 25.5248 14.353C25.0349 14.353 24.6377 14.7502 24.6377 15.2401C24.6377 15.73 25.0349 16.1272 25.5248 16.1272Z" fill="white"></path></svg>