<svg width="40" height="41" viewBox="0 0 40 41" fill="none" xmlns="http://www.w3.org/2000/svg" class="AppStoreLinks_socialIcon__bTFq4"><rect x="0.5" y="1.39551" width="39" height="39" rx="7.5" stroke="#DFE0E3"></rect><path d="M15.0644 17.8145H11.3032V29.8087H15.0644V17.8145Z" fill="#41404D"></path><path d="M25.2387 17.5546C25.1 17.5373 24.9527 17.5286 24.8054 17.5199C22.6994 17.4333 21.5121 18.6812 21.0962 19.2185C20.9835 19.3659 20.9315 19.4525 20.9315 19.4525V17.8492H17.335V29.8435H20.9315H21.0962C21.0962 28.6215 21.0962 27.4082 21.0962 26.1863C21.0962 25.5276 21.0962 24.869 21.0962 24.2103C21.0962 23.3957 21.0355 22.5291 21.4428 21.7838C21.7895 21.1598 22.4134 20.8478 23.1154 20.8478C25.1953 20.8478 25.2387 22.7284 25.2387 22.9017C25.2387 22.9104 25.2387 22.9191 25.2387 22.9191V29.8955H28.9999V22.0698C28.9999 19.3919 27.6393 17.8146 25.2387 17.5546Z" fill="#41404D"></path><path d="M13.1839 16.2633C14.3901 16.2633 15.3678 15.2856 15.3678 14.0794C15.3678 12.8733 14.3901 11.8955 13.1839 11.8955C11.9778 11.8955 11 12.8733 11 14.0794C11 15.2856 11.9778 16.2633 13.1839 16.2633Z" fill="#41404D"></path></svg>